<svg width="64" height="64" version="1.1" viewBox="0 0 16.9 16.9" xmlns="http://www.w3.org/2000/svg">
 <rect width="16.9" height="16.9" ry="1.77" fill="#333"/>
 <g transform="translate(.31 .293)" stroke="#000" stroke-linecap="round" stroke-linejoin="round">
  <ellipse cx="8.15" cy="2.64" rx="4" ry=".637" fill="#359eb2" stroke-width=".107"/>
  <path d="m9.21 2.14c-.072-.972-1.19 13.3-1.04 13.3.145.00402-.956-14.3-1.03-13.3" fill="none" stroke-width=".0643"/>
  <path d="m11.6 2.32c-1.38 3.96-3.9 13-3.44 13 .448.00323-2-8.99-3.37-13" fill="none" stroke-width=".0995"/>
  <path d="m10.5 2.15c-.928 4.01-2.62 13.2-2.32 13.2.302.00327-1.35-9.11-2.27-13.2" fill="none" stroke-width=".0822"/>
  <path d="m4.19 2.61c-.28.889 8.21.945 7.94.0527-.276-.892-4.55 12.7-3.99 12.7.556.00369-3.67-13.6-3.94-12.7z" fill="#2a7c8c" stroke-width=".184"/>
  <path d="m5.38 5.38c-.195.686 5.74.73 5.54.0407-.193-.689-3.18 9.8-2.79 9.81.388.00285-2.56-10.5-2.75-9.85z" fill="none" stroke-width=".135"/>
  <path d="m6.35 8.26c-.126.477 3.71.507 3.59.0283-.125-.479-2.06 6.81-1.8 6.81.251.00198-1.66-7.32-1.78-6.84z" fill="none" stroke-width=".0905"/>
  <path d="m6.91 10.2c-.0866.332 2.54.353 2.46.0196-.0855-.333-1.41 4.74-1.24 4.74.172.0014-1.13-5.09-1.22-4.76z" fill="none" stroke-width=".0625"/>
  <path d="m7.28 11.3c-.0604.256 1.78.273 1.72.0153-.0597-.257-.984 3.66-.864 3.66.12.0011-.792-3.93-.853-3.68z" fill="none" stroke-width=".0459"/>
  <path d="m7.58 12.4c-.0391.178 1.15.189 1.11.0105-.0386-.179-.636 2.54-.559 2.54.0777.00074-.513-2.73-.552-2.55z" fill="none" stroke-width=".0308"/>
  <path d="m7.73 13.1c-.0287.12.843.128.815.0071-.0283-.121-.467 1.72-.41 1.72.057.000501-.376-1.85-.405-1.73z" fill="none" stroke-width=".0217"/>
  <path d="m7.85 13.5c-.02.0931.589.099.569.0055-.0198-.0934-.326 1.33-.286 1.33.0398.000385-.263-1.43-.283-1.33z" fill="none" stroke-width=".0159"/>
  <path d="m7.95 13.9c-.013.0646.381.0687.368.0039-.0128-.0649-.211.923-.185.923.0258.000269-.17-.992-.183-.927z" fill="none" stroke-width=".0107"/>
  <path d="m5.04 2.6c-.22.89 6.45.947 6.24.0528-.217-.894-3.57 12.7-3.14 12.7.437.00369-2.88-13.7-3.1-12.8z" fill="none" stroke-width=".163"/>
  <path d="m6.6 2.57c-.111.894 3.26.951 3.15.053-.11-.898-1.81 12.8-1.59 12.8.221.00371-1.46-13.7-1.57-12.8z" fill="none" stroke-width=".116"/>
 </g>
</svg>
